HIERARCHY
ROOT SpineBase
{
  OFFSET 0.000000 0.000000 0.000000
  CHANNELS 6 Xposition Yposition Zposition Zrotation Xrotation Yrotation
  JOINT SpineMid
  {
    OFFSET -0.000000 30.051180 0.000000
    CHANNELS 3 Zrotation Xrotation Yrotation
    JOINT SpineShoulder
    {
      OFFSET -0.180923 22.283496 -0.648199
      CHANNELS 3 Zrotation Xrotation Yrotation
      JOINT Neck
      {
        OFFSET -0.094103 7.366757 -0.507971
        CHANNELS 3 Zrotation Xrotation Yrotation
        JOINT Head
        {
          OFFSET -1.952139 11.675002 2.069730
          CHANNELS 3 Zrotation Xrotation Yrotation
          End Site
          {
            OFFSET 0 0 0
          }
        }
      }
      JOINT ShoulderLeft
      {
        OFFSET -8.855604 -3.823439 12.242159
        CHANNELS 3 Zrotation Xrotation Yrotation
        JOINT ElbowLeft
        {
          OFFSET -7.117820 -21.893509 -5.344217
          CHANNELS 3 Zrotation Xrotation Yrotation
          JOINT WristLeft
          {
            OFFSET 6.710441 -24.803413 10.790305
            CHANNELS 3 Zrotation Xrotation Yrotation
            JOINT HandLeft
            {
              OFFSET -1.863362 -8.034400 1.848731
              CHANNELS 3 Zrotation Xrotation Yrotation
              JOINT HandTipLeft
              {
                OFFSET -0.496410 -4.082213 -0.384240
                CHANNELS 3 Zrotation Xrotation Yrotation
                End Site
                {
                  OFFSET 0 0 0
                }
              }
              JOINT ThumbLeft
              {
                OFFSET 0.151764 -1.996046 -3.748565
                CHANNELS 3 Zrotation Xrotation Yrotation
                End Site
                {
                  OFFSET 0 0 0
                }
              }
            }
          }
        }
      }
      JOINT ShoulderRight
      {
        OFFSET 3.400250 -4.848327 -12.819089
        CHANNELS 3 Zrotation Xrotation Yrotation
        JOINT ElbowRight
        {
          OFFSET 5.929492 -22.053923 -5.486928
          CHANNELS 3 Zrotation Xrotation Yrotation
          JOINT WristRight
          {
            OFFSET -21.437938 -12.124705 4.507639
            CHANNELS 3 Zrotation Xrotation Yrotation
            JOINT HandRight
            {
              OFFSET -1.368996 1.555935 2.089220
              CHANNELS 3 Zrotation Xrotation Yrotation
              JOINT HandTipRight
              {
                OFFSET -4.532409 -1.964373 0.954628
                CHANNELS 3 Zrotation Xrotation Yrotation
                End Site
                {
                  OFFSET 0 0 0
                }
              }
              JOINT ThumbRight
              {
                OFFSET 0.063318 -2.070754 -3.287455
                CHANNELS 3 Zrotation Xrotation Yrotation
                End Site
                {
                  OFFSET 0 0 0
                }
              }
            }
          }
        }
      }
    }
  }
  JOINT HipLeft
  {
    OFFSET -3.965042 0.044387 1.815449
    CHANNELS 3 Zrotation Xrotation Yrotation
    JOINT KneeLeft
    {
      OFFSET -4.506902 -14.167048 15.023864
      CHANNELS 3 Zrotation Xrotation Yrotation
      JOINT AnkleLeft
      {
        OFFSET 18.098278 -37.174899 3.660587
        CHANNELS 3 Zrotation Xrotation Yrotation
        JOINT FootLeft
        {
          OFFSET -7.492057 -3.349087 -6.563713
          CHANNELS 3 Zrotation Xrotation Yrotation
          End Site
          {
            OFFSET 0 0 0
          }
        }
      }
    }
  }
  JOINT HipRight
  {
    OFFSET 2.697165 1.390829 -8.624039
    CHANNELS 3 Zrotation Xrotation Yrotation
    JOINT KneeRight
    {
      OFFSET 7.745928 -24.240417 4.513370
      CHANNELS 3 Zrotation Xrotation Yrotation
      JOINT AnkleRight
      {
        OFFSET 10.792870 -33.085658 6.869351
        CHANNELS 3 Zrotation Xrotation Yrotation
        JOINT FootRight
        {
          OFFSET -7.622296 -3.267819 -6.505542
          CHANNELS 3 Zrotation Xrotation Yrotation
          End Site
          {
            OFFSET 0 0 0
          }
        }
      }
    }
  }
}
MOTION
Frames: 5
Frame Time: 0.033333
58.963275 64.861457 328.648958 0.000000 0.000000 57.455052 -0.000000 0.000000 -57.455052 -0.000000 0.000000 0.000000 -0.000000 0.000000 0.000000 0.000000 0.000000 0.000000 -0.000000 0.000000 0.000000 -0.000000 0.000000 0.000000 -0.000000 0.000000 0.000000 -0.000000 0.000000 0.000000 0.000000 0.000000 0.000000 0.000000 0.000000 0.000000 -0.000000 0.000000 0.000000 -0.000000 0.000000 0.000000 -0.000000 0.000000 0.000000 -0.000000 0.000000 0.000000 0.000000 0.000000 0.000000 0.000000 0.000000 0.000000 -0.000000 0.000000 -57.455052 -0.000000 0.000000 0.000000 -0.000000 0.000000 0.000000 0.000000 0.000000 0.000000 -0.000000 0.000000 -57.455052 -0.000000 0.000000 0.000000 -0.000000 0.000000 0.000000 0.000000 0.000000 0.000000
58.938749 64.855937 328.611979 -0.040686 0.062608 57.371000 -0.030790 -0.068023 -57.370996 -0.000000 0.000000 0.000000 -0.000000 0.000000 0.000000 0.000000 0.000000 0.000000 0.572926 -0.841481 0.138407 -0.570954 0.842820 -0.130000 -0.450188 0.993162 -0.330388 5.312638 6.756745 -1.306973 0.000000 0.000000 0.000000 0.000000 0.000000 0.000000 -0.000000 0.000000 0.000000 -0.000000 0.000000 0.000000 1.751954 4.056628 1.089571 -5.268187 -3.215250 -4.573600 0.000000 0.000000 0.000000 0.000000 0.000000 0.000000 -0.030790 -0.068023 -57.370996 -0.000000 0.000000 0.000000 -0.000000 0.000000 0.000000 0.000000 0.000000 0.000000 -0.030790 -0.068023 -57.370996 -0.000000 0.000000 0.000000 -0.000000 0.000000 0.000000 0.000000 0.000000 0.000000
58.921886 64.850316 328.579271 -0.073533 0.115398 57.285578 -0.057352 -0.124236 -57.285566 -0.000000 0.000000 0.000000 0.456731 -0.882406 -0.225156 0.000000 0.000000 0.000000 1.074109 -1.562665 0.262193 -1.910769 2.463735 -0.330491 0.002242 0.991219 -0.497567 8.602299 10.917384 -2.258757 0.000000 0.000000 0.000000 0.000000 0.000000 0.000000 -0.000000 0.000000 0.000000 -0.000000 0.000000 0.000000 3.148463 7.496958 1.951603 -9.756618 -5.522990 -9.030397 0.000000 0.000000 0.000000 0.000000 0.000000 0.000000 -0.057352 -0.124236 -57.285566 -0.000000 0.000000 0.000000 -0.000000 0.000000 0.000000 0.000000 0.000000 0.000000 -0.057352 -0.124236 -57.285566 -0.000000 0.000000 0.000000 -0.000000 0.000000 0.000000 0.000000 0.000000 0.000000
58.912686 64.844594 328.550833 -0.098543 0.158370 57.198694 -0.079735 -0.168624 -57.198676 -0.000000 0.000000 0.000000 0.681658 -1.226973 -0.318999 0.000000 0.000000 0.000000 1.502095 -2.162917 0.368210 -2.647642 3.405233 -0.430439 0.000548 1.404743 -0.690258 10.579768 13.692253 -2.888780 0.000000 0.000000 0.000000 0.000000 0.000000 0.000000 -0.834657 0.035413 0.217852 0.834516 -0.038582 -0.217313 4.194428 10.245619 2.626657 -13.297452 -7.034829 -12.992058 0.000000 0.000000 0.000000 0.000000 0.000000 0.000000 -0.079735 -0.168624 -57.198676 -0.046381 -0.950773 -0.467546 0.038627 0.951119 0.466840 0.000000 0.000000 0.000000 -0.079735 -0.168624 -57.198676 -0.000000 0.000000 0.000000 -0.000000 0.000000 0.000000 0.000000 0.000000 0.000000
58.911149 64.838771 328.526665 -0.115714 0.191524 57.110264 -0.097991 -0.201169 -57.110242 -0.000000 0.000000 0.000000 0.904789 -1.507453 -0.400975 0.000000 0.000000 0.000000 1.855708 -2.641951 0.453797 -3.244144 4.154851 -0.498168 0.023217 1.705857 -0.829601 11.621948 15.730931 -3.304334 0.000000 0.000000 0.000000 0.000000 0.000000 0.000000 -1.018916 0.028538 0.262045 1.018775 -0.033193 -0.261496 4.897171 12.262669 3.150755 -15.779830 -7.913104 -16.170971 0.000000 0.000000 0.000000 0.000000 0.000000 0.000000 -0.097991 -0.201169 -57.110242 -0.189620 -1.255632 -0.631889 0.175805 1.257641 0.627881 0.000000 0.000000 0.000000 -0.097991 -0.201169 -57.110242 -0.000000 0.000000 0.000000 -0.000000 0.000000 0.000000 0.000000 0.000000 0.000000
